<svg width="172" height="62" viewBox="0 0 172 62" fill="none" xmlns="http://www.w3.org/2000/svg">
<g filter="url(#filter0_d_1013_889)">
<rect x="6" y="6" width="160" height="50" rx="10" fill="white"/>
<mask id="path-2-outside-1_1013_889" maskUnits="userSpaceOnUse" x="118" y="13" width="36" height="36" fill="black">
<rect fill="white" x="118" y="13" width="36" height="36"/>
<path fill-rule="evenodd" clip-rule="evenodd" d="M134.062 46C133.787 46 133.555 45.797 133.518 45.5248L133.253 43.5824V43.2128C131.835 42.8888 130.509 42.3245 129.32 41.5649L129.045 41.8397L127.485 43.0259C127.266 43.1921 126.958 43.1712 126.764 42.977L124.023 40.2362C123.829 40.042 123.808 39.734 123.974 39.5153L125.16 37.9545L125.448 37.6673C124.7 36.4801 124.146 35.1587 123.83 33.7473H123.418L121.475 33.4824C121.203 33.4453 121 33.2127 121 32.938V29.062C121 28.7873 121.203 28.5547 121.475 28.5176L123.418 28.2527H123.83C124.146 26.8413 124.7 25.5199 125.447 24.3327L125.277 24.162L123.98 22.4855C123.811 22.2668 123.83 21.9564 124.026 21.7608L126.761 19.026C126.956 18.8304 127.267 18.8107 127.486 18.9799L129.162 20.2768L129.32 20.4351C130.509 19.6755 131.835 19.1111 133.253 18.7872V18.5824L133.521 16.4799C133.556 16.2055 133.79 16 134.066 16H137.934C138.21 16 138.444 16.2055 138.479 16.4799L138.747 18.5824V18.7624C140.179 19.076 141.52 19.6347 142.723 20.3922L142.838 20.2768L144.514 18.9799C144.733 18.8107 145.044 18.8304 145.239 19.026L147.974 21.7608C148.17 21.9564 148.189 22.2668 148.02 22.4855L146.723 24.162L146.62 24.265C147.39 25.4695 147.959 26.8145 148.281 28.2527H148.418L150.52 28.5212C150.794 28.5562 151 28.7896 151 29.0662V32.9338C151 33.2104 150.794 33.4438 150.52 33.4788L148.418 33.7473H148.281C147.959 35.1855 147.39 36.5304 146.62 37.735L146.84 37.9545L148.026 39.5153C148.192 39.734 148.171 40.042 147.977 40.2362L145.236 42.977C145.042 43.1712 144.734 43.1921 144.515 43.0259L142.955 41.8397L142.723 41.6078C141.52 42.3653 140.179 42.9239 138.747 43.2375V43.5824L138.482 45.5248C138.445 45.797 138.213 46 137.938 46H134.062Z"/>
</mask>
<path fill-rule="evenodd" clip-rule="evenodd" d="M134.062 46C133.787 46 133.555 45.797 133.518 45.5248L133.253 43.5824V43.2128C131.835 42.8888 130.509 42.3245 129.32 41.5649L129.045 41.8397L127.485 43.0259C127.266 43.1921 126.958 43.1712 126.764 42.977L124.023 40.2362C123.829 40.042 123.808 39.734 123.974 39.5153L125.16 37.9545L125.448 37.6673C124.7 36.4801 124.146 35.1587 123.83 33.7473H123.418L121.475 33.4824C121.203 33.4453 121 33.2127 121 32.938V29.062C121 28.7873 121.203 28.5547 121.475 28.5176L123.418 28.2527H123.83C124.146 26.8413 124.7 25.5199 125.447 24.3327L125.277 24.162L123.98 22.4855C123.811 22.2668 123.83 21.9564 124.026 21.7608L126.761 19.026C126.956 18.8304 127.267 18.8107 127.486 18.9799L129.162 20.2768L129.32 20.4351C130.509 19.6755 131.835 19.1111 133.253 18.7872V18.5824L133.521 16.4799C133.556 16.2055 133.79 16 134.066 16H137.934C138.21 16 138.444 16.2055 138.479 16.4799L138.747 18.5824V18.7624C140.179 19.076 141.52 19.6347 142.723 20.3922L142.838 20.2768L144.514 18.9799C144.733 18.8107 145.044 18.8304 145.239 19.026L147.974 21.7608C148.17 21.9564 148.189 22.2668 148.02 22.4855L146.723 24.162L146.62 24.265C147.39 25.4695 147.959 26.8145 148.281 28.2527H148.418L150.52 28.5212C150.794 28.5562 151 28.7896 151 29.0662V32.9338C151 33.2104 150.794 33.4438 150.52 33.4788L148.418 33.7473H148.281C147.959 35.1855 147.39 36.5304 146.62 37.735L146.84 37.9545L148.026 39.5153C148.192 39.734 148.171 40.042 147.977 40.2362L145.236 42.977C145.042 43.1712 144.734 43.1921 144.515 43.0259L142.955 41.8397L142.723 41.6078C141.52 42.3653 140.179 42.9239 138.747 43.2375V43.5824L138.482 45.5248C138.445 45.797 138.213 46 137.938 46H134.062Z" fill="black"/>
<path d="M133.518 45.5248L130.545 45.9301L130.545 45.9301L133.518 45.5248ZM133.253 43.5824H130.253V43.786L130.28 43.9878L133.253 43.5824ZM133.253 43.2128H136.253V40.821L133.921 40.2882L133.253 43.2128ZM129.32 41.5649L130.935 39.0367L128.904 37.7388L127.199 39.4435L129.32 41.5649ZM129.045 41.8397L130.861 44.2282L131.023 44.105L131.167 43.961L129.045 41.8397ZM127.485 43.0259L125.669 40.6374L125.669 40.6374L127.485 43.0259ZM126.764 42.977L128.885 40.8556L128.885 40.8556L126.764 42.977ZM124.023 40.2362L121.902 42.3576L121.902 42.3576L124.023 40.2362ZM123.974 39.5153L121.586 37.7L121.586 37.7L123.974 39.5153ZM125.16 37.9545L123.039 35.8332L122.895 35.9772L122.772 36.1393L125.16 37.9545ZM125.448 37.6673L127.569 39.7886L129.262 38.095L127.986 36.0685L125.448 37.6673ZM123.83 33.7473L126.758 33.0922L126.233 30.7473H123.83V33.7473ZM123.418 33.7473L123.012 36.7197L123.214 36.7473H123.418V33.7473ZM121.475 33.4824L121.07 36.4549H121.07L121.475 33.4824ZM121.475 28.5176L121.07 25.5451L121.07 25.5451L121.475 28.5176ZM123.418 28.2527V25.2527H123.214L123.012 25.2803L123.418 28.2527ZM123.83 28.2527V31.2527H126.233L126.758 28.9078L123.83 28.2527ZM125.447 24.3327L127.986 25.9315L129.262 23.9049L127.569 22.2114L125.447 24.3327ZM125.277 24.162L122.904 25.9977L123.021 26.1485L123.156 26.2834L125.277 24.162ZM123.98 22.4855L121.607 24.3211L121.607 24.3211L123.98 22.4855ZM124.026 21.7608L126.147 23.8821L126.147 23.8821L124.026 21.7608ZM126.761 19.026L128.882 21.1473L128.882 21.1473L126.761 19.026ZM127.486 18.9799L125.65 21.3528L125.65 21.3528L127.486 18.9799ZM129.162 20.2768L131.283 18.1555L131.149 18.0207L130.998 17.904L129.162 20.2768ZM129.32 20.4351L127.199 22.5564L128.904 24.2611L130.935 22.9633L129.32 20.4351ZM133.253 18.7872L133.921 21.7118L136.253 21.1789V18.7872H133.253ZM133.253 18.5824L130.277 18.2025L130.253 18.3917V18.5824H133.253ZM133.521 16.4799L136.497 16.8598L136.497 16.8598L133.521 16.4799ZM138.479 16.4799L135.503 16.8598L135.503 16.8598L138.479 16.4799ZM138.747 18.5824H141.747V18.3917L141.723 18.2025L138.747 18.5824ZM138.747 18.7624H135.747V21.1766L138.106 21.693L138.747 18.7624ZM142.723 20.3922L141.124 22.9306L143.15 24.2071L144.844 22.5135L142.723 20.3922ZM142.838 20.2768L141.002 17.904L140.852 18.0207L140.717 18.1555L142.838 20.2768ZM144.514 18.9799L142.679 16.607L142.679 16.607L144.514 18.9799ZM145.239 19.026L147.361 16.9047L147.361 16.9047L145.239 19.026ZM147.974 21.7608L145.853 23.8821L145.853 23.8821L147.974 21.7608ZM148.02 22.4855L145.647 20.6499H145.647L148.02 22.4855ZM146.723 24.162L148.844 26.2834L148.979 26.1485L149.096 25.9977L146.723 24.162ZM146.62 24.265L144.499 22.1437L142.794 23.8484L144.092 25.88L146.62 24.265ZM148.281 28.2527L145.353 28.9078L145.878 31.2527H148.281V28.2527ZM148.418 28.2527L148.797 25.2769L148.608 25.2527H148.418V28.2527ZM150.52 28.5212L150.14 31.497L150.14 31.497L150.52 28.5212ZM150.52 33.4788L150.14 30.503L150.14 30.503L150.52 33.4788ZM148.418 33.7473V36.7473H148.608L148.797 36.7231L148.418 33.7473ZM148.281 33.7473V30.7473H145.878L145.353 33.0922L148.281 33.7473ZM146.62 37.735L144.092 36.1199L142.794 38.1516L144.499 39.8563L146.62 37.735ZM146.84 37.9545L149.228 36.1393L149.105 35.9772L148.961 35.8332L146.84 37.9545ZM148.026 39.5153L145.637 41.3305L145.637 41.3305L148.026 39.5153ZM147.977 40.2362L150.098 42.3576L150.098 42.3576L147.977 40.2362ZM145.236 42.977L143.115 40.8556H143.115L145.236 42.977ZM144.515 43.0259L146.331 40.6374V40.6374L144.515 43.0259ZM142.955 41.8397L140.833 43.961L140.977 44.105L141.139 44.2282L142.955 41.8397ZM142.723 41.6078L144.844 39.4865L143.15 37.7929L141.124 39.0694L142.723 41.6078ZM138.747 43.2375L138.106 40.307L135.747 40.8234V43.2375H138.747ZM138.747 43.5824L141.72 43.9878L141.747 43.786V43.5824H138.747ZM138.482 45.5248L141.455 45.9301V45.9301L138.482 45.5248ZM130.545 45.9301C130.785 47.6888 132.287 49 134.062 49V43C135.287 43 136.325 43.9052 136.49 45.1194L130.545 45.9301ZM130.28 43.9878L130.545 45.9301L136.49 45.1194L136.225 43.1771L130.28 43.9878ZM130.253 43.2128V43.5824H136.253V43.2128H130.253ZM127.705 44.093C129.179 45.0345 130.824 45.7352 132.584 46.1374L133.921 40.2882C132.846 40.0425 131.84 39.6144 130.935 39.0367L127.705 44.093ZM131.167 43.961L131.442 43.6862L127.199 39.4435L126.924 39.7184L131.167 43.961ZM129.3 45.4144L130.861 44.2282L127.23 39.4512L125.669 40.6374L129.3 45.4144ZM124.642 45.0983C125.898 46.3534 127.887 46.4884 129.3 45.4144L125.669 40.6374C126.645 39.8959 128.019 39.9891 128.885 40.8556L124.642 45.0983ZM121.902 42.3576L124.642 45.0983L128.885 40.8556L126.144 38.1149L121.902 42.3576ZM121.586 37.7C120.512 39.1132 120.647 41.1025 121.902 42.3576L126.144 38.1149C127.011 38.9815 127.104 40.3549 126.363 41.3305L121.586 37.7ZM122.772 36.1393L121.586 37.7L126.363 41.3305L127.549 39.7698L122.772 36.1393ZM123.326 35.546L123.039 35.8332L127.282 40.0758L127.569 39.7886L123.326 35.546ZM120.902 34.4023C121.295 36.1547 121.982 37.7946 122.909 39.2661L127.986 36.0685C127.417 35.1656 126.997 34.1626 126.758 33.0922L120.902 34.4023ZM123.418 36.7473H123.83V30.7473H123.418V36.7473ZM121.07 36.4549L123.012 36.7197L123.823 30.7748L121.881 30.5099L121.07 36.4549ZM118 32.938C118 34.7129 119.311 36.215 121.07 36.4549L121.881 30.5099C123.095 30.6755 124 31.7125 124 32.938H118ZM118 29.062V32.938H124V29.062H118ZM121.07 25.5451C119.311 25.785 118 27.287 118 29.062H124C124 30.2875 123.095 31.3245 121.881 31.4901L121.07 25.5451ZM123.012 25.2803L121.07 25.5451L121.881 31.4901L123.823 31.2252L123.012 25.2803ZM123.83 25.2527H123.418V31.2527H123.83V25.2527ZM122.909 22.7338C121.982 24.2054 121.294 25.8453 120.902 27.5977L126.758 28.9078C126.997 27.8374 127.417 26.8343 127.986 25.9315L122.909 22.7338ZM123.156 26.2834L123.326 26.454L127.569 22.2114L127.398 22.0407L123.156 26.2834ZM121.607 24.3211L122.904 25.9977L127.65 22.3264L126.353 20.6499L121.607 24.3211ZM121.905 19.6395C120.641 20.9028 120.514 22.9081 121.607 24.3211L126.353 20.6499C127.107 21.6255 127.019 23.01 126.147 23.8821L121.905 19.6395ZM124.64 16.9047L121.905 19.6395L126.147 23.8821L128.882 21.1473L124.64 16.9047ZM129.321 16.607C127.908 15.5139 125.903 15.6414 124.64 16.9047L128.882 21.1473C128.01 22.0195 126.626 22.1075 125.65 21.3528L129.321 16.607ZM130.998 17.904L129.321 16.607L125.65 21.3528L127.326 22.6497L130.998 17.904ZM131.442 18.3138L131.283 18.1555L127.041 22.3982L127.199 22.5564L131.442 18.3138ZM132.584 15.8626C130.824 16.2648 129.179 16.9654 127.705 17.9069L130.935 22.9633C131.84 22.3855 132.846 21.9574 133.921 21.7118L132.584 15.8626ZM130.253 18.5824V18.7872H136.253V18.5824H130.253ZM130.545 16.1L130.277 18.2025L136.229 18.9623L136.497 16.8598L130.545 16.1ZM134.066 13C132.28 13 130.772 14.3278 130.545 16.1L136.497 16.8598C136.341 18.0833 135.3 19 134.066 19V13ZM137.934 13H134.066V19H137.934V13ZM141.455 16.1C141.228 14.3278 139.72 13 137.934 13V19C136.7 19 135.659 18.0833 135.503 16.8598L141.455 16.1ZM141.723 18.2025L141.455 16.1L135.503 16.8598L135.771 18.9623L141.723 18.2025ZM141.747 18.7624V18.5824H135.747V18.7624H141.747ZM144.321 17.8537C142.831 16.9148 141.167 16.2213 139.389 15.8319L138.106 21.693C139.192 21.9308 140.209 22.3546 141.124 22.9306L144.321 17.8537ZM140.717 18.1555L140.601 18.2709L144.844 22.5135L144.959 22.3982L140.717 18.1555ZM142.679 16.607L141.002 17.904L144.674 22.6497L146.35 21.3528L142.679 16.607ZM147.361 16.9047C146.097 15.6414 144.092 15.5139 142.679 16.607L146.35 21.3528C145.375 22.1075 143.99 22.0195 143.118 21.1473L147.361 16.9047ZM150.095 19.6395L147.361 16.9047L143.118 21.1473L145.853 23.8821L150.095 19.6395ZM150.393 24.3211C151.486 22.9081 151.359 20.9028 150.095 19.6395L145.853 23.8821C144.981 23.01 144.893 21.6255 145.647 20.6499L150.393 24.3211ZM149.096 25.9977L150.393 24.3211L145.647 20.6499L144.35 22.3264L149.096 25.9977ZM148.742 26.3863L148.844 26.2834L144.602 22.0407L144.499 22.1437L148.742 26.3863ZM151.208 27.5977C150.809 25.8119 150.102 24.1429 149.148 22.65L144.092 25.88C144.677 26.7962 145.109 27.817 145.353 28.9078L151.208 27.5977ZM148.418 25.2527H148.281V31.2527H148.418V25.2527ZM150.9 25.5453L148.797 25.2769L148.038 31.2286L150.14 31.497L150.9 25.5453ZM154 29.0662C154 27.2797 152.672 25.7715 150.9 25.5453L150.14 31.497C148.917 31.3408 148 30.2996 148 29.0662H154ZM154 32.9338V29.0662H148V32.9338H154ZM150.9 36.4547C152.672 36.2285 154 34.7204 154 32.9338H148C148 31.7004 148.917 30.6592 150.14 30.503L150.9 36.4547ZM148.797 36.7231L150.9 36.4547L150.14 30.503L148.038 30.7714L148.797 36.7231ZM148.281 36.7473H148.418V30.7473H148.281V36.7473ZM149.148 39.35C150.102 37.8571 150.809 36.1881 151.208 34.4023L145.353 33.0922C145.109 34.1829 144.677 35.2038 144.092 36.1199L149.148 39.35ZM148.961 35.8332L148.742 35.6137L144.499 39.8563L144.718 40.0758L148.961 35.8332ZM150.414 37.7L149.228 36.1393L144.451 39.7698L145.637 41.3305L150.414 37.7ZM150.098 42.3576C151.353 41.1025 151.488 39.1132 150.414 37.7L145.637 41.3305C144.896 40.3549 144.989 38.9814 145.856 38.1149L150.098 42.3576ZM147.358 45.0983L150.098 42.3576L145.856 38.1149L143.115 40.8556L147.358 45.0983ZM142.7 45.4144C144.113 46.4884 146.102 46.3534 147.358 45.0983L143.115 40.8556C143.981 39.9891 145.355 39.8959 146.331 40.6374L142.7 45.4144ZM141.139 44.2282L142.7 45.4144L146.331 40.6374L144.77 39.4512L141.139 44.2282ZM140.601 43.7291L140.833 43.961L145.076 39.7184L144.844 39.4865L140.601 43.7291ZM139.389 46.1681C141.167 45.7787 142.831 45.0852 144.321 44.1462L141.124 39.0694C140.209 39.6454 139.192 40.0691 138.106 40.307L139.389 46.1681ZM141.747 43.5824V43.2375H135.747V43.5824H141.747ZM141.455 45.9301L141.72 43.9878L135.775 43.1771L135.51 45.1194L141.455 45.9301ZM137.938 49C139.713 49 141.215 47.6888 141.455 45.9301L135.51 45.1194C135.675 43.9052 136.713 43 137.938 43V49ZM134.062 49H137.938V43H134.062V49Z" fill="black" mask="url(#path-2-outside-1_1013_889)"/>
<path d="M133 24V39L144 31.5L133 24Z" fill="white"/>
<mask id="path-5-outside-2_1013_889" maskUnits="userSpaceOnUse" x="18" y="13" width="36" height="36" fill="black">
<rect fill="white" x="18" y="13" width="36" height="36"/>
<path fill-rule="evenodd" clip-rule="evenodd" d="M34.062 46C33.7873 46 33.5547 45.797 33.5176 45.5248L33.2527 43.5824V43.2128C31.8353 42.8888 30.5094 42.3245 29.3203 41.5649L29.0455 41.8397L27.4847 43.0259C27.266 43.1921 26.9581 43.1712 26.7638 42.977L24.0231 40.2362C23.8288 40.042 23.8079 39.734 23.9741 39.5153L25.1603 37.9545L25.4475 37.6673C24.6998 36.4801 24.1458 35.1587 23.83 33.7473H23.4176L21.4752 33.4824C21.203 33.4453 21 33.2127 21 32.938V29.062C21 28.7873 21.203 28.5547 21.4752 28.5176L23.4176 28.2527H23.83C24.1458 26.8413 24.6998 25.5199 25.4475 24.3327L25.2769 24.162L23.9799 22.4855C23.8107 22.2668 23.8304 21.9564 24.026 21.7608L26.7608 19.026C26.9564 18.8304 27.2668 18.8107 27.4855 18.9799L29.1621 20.2768L29.3203 20.4351C30.5094 19.6755 31.8353 19.1111 33.2527 18.7872V18.5824L33.5212 16.4799C33.5562 16.2055 33.7896 16 34.0662 16H37.9338C38.2104 16 38.4438 16.2055 38.4788 16.4799L38.7473 18.5824V18.7624C40.1795 19.076 41.52 19.6347 42.7226 20.3922L42.838 20.2768L44.5145 18.9799C44.7332 18.8107 45.0436 18.8304 45.2392 19.026L47.974 21.7608C48.1696 21.9564 48.1893 22.2668 48.0201 22.4855L46.7232 24.162L46.6202 24.265C47.3897 25.4695 47.9588 26.8145 48.2806 28.2527H48.4176L50.5201 28.5212C50.7945 28.5562 51 28.7896 51 29.0662V32.9338C51 33.2104 50.7945 33.4438 50.5201 33.4788L48.4176 33.7473H48.2806C47.9588 35.1855 47.3897 36.5304 46.6202 37.735L46.8397 37.9545L48.0259 39.5153C48.1922 39.734 48.1713 40.042 47.977 40.2362L45.2363 42.977C45.042 43.1712 44.734 43.1921 44.5153 43.0259L42.9545 41.8397L42.7226 41.6078C41.52 42.3653 40.1795 42.9239 38.7473 43.2375V43.5824L38.4824 45.5248C38.4453 45.797 38.2127 46 37.938 46H34.062Z"/>
</mask>
<path fill-rule="evenodd" clip-rule="evenodd" d="M34.062 46C33.7873 46 33.5547 45.797 33.5176 45.5248L33.2527 43.5824V43.2128C31.8353 42.8888 30.5094 42.3245 29.3203 41.5649L29.0455 41.8397L27.4847 43.0259C27.266 43.1921 26.9581 43.1712 26.7638 42.977L24.0231 40.2362C23.8288 40.042 23.8079 39.734 23.9741 39.5153L25.1603 37.9545L25.4475 37.6673C24.6998 36.4801 24.1458 35.1587 23.83 33.7473H23.4176L21.4752 33.4824C21.203 33.4453 21 33.2127 21 32.938V29.062C21 28.7873 21.203 28.5547 21.4752 28.5176L23.4176 28.2527H23.83C24.1458 26.8413 24.6998 25.5199 25.4475 24.3327L25.2769 24.162L23.9799 22.4855C23.8107 22.2668 23.8304 21.9564 24.026 21.7608L26.7608 19.026C26.9564 18.8304 27.2668 18.8107 27.4855 18.9799L29.1621 20.2768L29.3203 20.4351C30.5094 19.6755 31.8353 19.1111 33.2527 18.7872V18.5824L33.5212 16.4799C33.5562 16.2055 33.7896 16 34.0662 16H37.9338C38.2104 16 38.4438 16.2055 38.4788 16.4799L38.7473 18.5824V18.7624C40.1795 19.076 41.52 19.6347 42.7226 20.3922L42.838 20.2768L44.5145 18.9799C44.7332 18.8107 45.0436 18.8304 45.2392 19.026L47.974 21.7608C48.1696 21.9564 48.1893 22.2668 48.0201 22.4855L46.7232 24.162L46.6202 24.265C47.3897 25.4695 47.9588 26.8145 48.2806 28.2527H48.4176L50.5201 28.5212C50.7945 28.5562 51 28.7896 51 29.0662V32.9338C51 33.2104 50.7945 33.4438 50.5201 33.4788L48.4176 33.7473H48.2806C47.9588 35.1855 47.3897 36.5304 46.6202 37.735L46.8397 37.9545L48.0259 39.5153C48.1922 39.734 48.1713 40.042 47.977 40.2362L45.2363 42.977C45.042 43.1712 44.734 43.1921 44.5153 43.0259L42.9545 41.8397L42.7226 41.6078C41.52 42.3653 40.1795 42.9239 38.7473 43.2375V43.5824L38.4824 45.5248C38.4453 45.797 38.2127 46 37.938 46H34.062Z" fill="black"/>
<path d="M33.5176 45.5248L30.5451 45.9301L30.5451 45.9301L33.5176 45.5248ZM33.2527 43.5824H30.2527V43.786L30.2803 43.9878L33.2527 43.5824ZM33.2527 43.2128H36.2527V40.821L33.9211 40.2882L33.2527 43.2128ZM29.3203 41.5649L30.9354 39.0367L28.9037 37.7388L27.199 39.4435L29.3203 41.5649ZM29.0455 41.8397L30.8607 44.2282L31.0228 44.105L31.1668 43.961L29.0455 41.8397ZM27.4847 43.0259L25.6695 40.6374L25.6695 40.6374L27.4847 43.0259ZM26.7638 42.977L28.8851 40.8556L28.8851 40.8556L26.7638 42.977ZM24.0231 40.2362L21.9017 42.3576L21.9017 42.3576L24.0231 40.2362ZM23.9741 39.5153L21.5856 37.7L21.5856 37.7L23.9741 39.5153ZM25.1603 37.9545L23.039 35.8332L22.895 35.9772L22.7718 36.1393L25.1603 37.9545ZM25.4475 37.6673L27.5688 39.7886L29.2624 38.095L27.986 36.0685L25.4475 37.6673ZM23.83 33.7473L26.7576 33.0922L26.233 30.7473H23.83V33.7473ZM23.4176 33.7473L23.0122 36.7197L23.214 36.7473H23.4176V33.7473ZM21.4752 33.4824L21.0699 36.4549H21.0699L21.4752 33.4824ZM21.4752 28.5176L21.0699 25.5451L21.0699 25.5451L21.4752 28.5176ZM23.4176 28.2527V25.2527H23.214L23.0122 25.2803L23.4176 28.2527ZM23.83 28.2527V31.2527H26.233L26.7576 28.9078L23.83 28.2527ZM25.4475 24.3327L27.9859 25.9315L29.2624 23.9049L27.5688 22.2114L25.4475 24.3327ZM25.2769 24.162L22.904 25.9977L23.0207 26.1485L23.1555 26.2834L25.2769 24.162ZM23.9799 22.4855L21.6071 24.3211L21.6071 24.3211L23.9799 22.4855ZM24.026 21.7608L26.1473 23.8821L26.1473 23.8821L24.026 21.7608ZM26.7608 19.026L28.8821 21.1473L28.8821 21.1473L26.7608 19.026ZM27.4855 18.9799L25.6499 21.3528L25.6499 21.3528L27.4855 18.9799ZM29.1621 20.2768L31.2834 18.1555L31.1485 18.0207L30.9977 17.904L29.1621 20.2768ZM29.3203 20.4351L27.199 22.5564L28.9037 24.2611L30.9354 22.9633L29.3203 20.4351ZM33.2527 18.7872L33.9211 21.7118L36.2527 21.1789V18.7872H33.2527ZM33.2527 18.5824L30.2769 18.2025L30.2527 18.3917V18.5824H33.2527ZM33.5212 16.4799L36.497 16.8598L36.497 16.8598L33.5212 16.4799ZM38.4788 16.4799L35.503 16.8598L35.503 16.8598L38.4788 16.4799ZM38.7473 18.5824H41.7473V18.3917L41.7231 18.2025L38.7473 18.5824ZM38.7473 18.7624H35.7473V21.1766L38.1056 21.693L38.7473 18.7624ZM42.7226 20.3922L41.1238 22.9306L43.1504 24.2071L44.844 22.5135L42.7226 20.3922ZM42.838 20.2768L41.0024 17.904L40.8515 18.0207L40.7166 18.1555L42.838 20.2768ZM44.5145 18.9799L42.6789 16.607L42.6789 16.607L44.5145 18.9799ZM45.2392 19.026L47.3605 16.9047L47.3605 16.9047L45.2392 19.026ZM47.974 21.7608L45.8527 23.8821L45.8527 23.8821L47.974 21.7608ZM48.0201 22.4855L45.6472 20.6499H45.6472L48.0201 22.4855ZM46.7232 24.162L48.8445 26.2834L48.9794 26.1485L49.096 25.9977L46.7232 24.162ZM46.6202 24.265L44.4989 22.1437L42.7942 23.8484L44.092 25.88L46.6202 24.265ZM48.2806 28.2527L45.353 28.9078L45.8777 31.2527H48.2806V28.2527ZM48.4176 28.2527L48.7975 25.2769L48.6083 25.2527H48.4176V28.2527ZM50.5201 28.5212L50.1402 31.497L50.1402 31.497L50.5201 28.5212ZM50.5201 33.4788L50.1402 30.503L50.1402 30.503L50.5201 33.4788ZM48.4176 33.7473V36.7473H48.6083L48.7975 36.7231L48.4176 33.7473ZM48.2806 33.7473V30.7473H45.8777L45.353 33.0922L48.2806 33.7473ZM46.6202 37.735L44.092 36.1199L42.7942 38.1516L44.4989 39.8563L46.6202 37.735ZM46.8397 37.9545L49.2282 36.1393L49.105 35.9772L48.961 35.8332L46.8397 37.9545ZM48.0259 39.5153L45.6374 41.3305L45.6374 41.3305L48.0259 39.5153ZM47.977 40.2362L50.0983 42.3576L50.0983 42.3576L47.977 40.2362ZM45.2363 42.977L43.1149 40.8556H43.1149L45.2363 42.977ZM44.5153 43.0259L46.3305 40.6374V40.6374L44.5153 43.0259ZM42.9545 41.8397L40.8332 43.961L40.9772 44.105L41.1393 44.2282L42.9545 41.8397ZM42.7226 41.6078L44.8439 39.4865L43.1504 37.7929L41.1238 39.0694L42.7226 41.6078ZM38.7473 43.2375L38.1056 40.307L35.7473 40.8234V43.2375H38.7473ZM38.7473 43.5824L41.7197 43.9878L41.7473 43.786V43.5824H38.7473ZM38.4824 45.5248L41.4549 45.9301V45.9301L38.4824 45.5248ZM30.5451 45.9301C30.785 47.6888 32.287 49 34.062 49V43C35.2875 43 36.3245 43.9052 36.4901 45.1194L30.5451 45.9301ZM30.2803 43.9878L30.5451 45.9301L36.4901 45.1194L36.2252 43.1771L30.2803 43.9878ZM30.2527 43.2128V43.5824H36.2527V43.2128H30.2527ZM27.7053 44.093C29.1791 45.0345 30.8244 45.7352 32.5844 46.1374L33.9211 40.2882C32.8462 40.0425 31.8398 39.6144 30.9354 39.0367L27.7053 44.093ZM31.1668 43.961L31.4417 43.6862L27.199 39.4435L26.9242 39.7184L31.1668 43.961ZM29.3 45.4144L30.8607 44.2282L27.2302 39.4512L25.6695 40.6374L29.3 45.4144ZM24.6424 45.0983C25.8975 46.3534 27.8868 46.4884 29.3 45.4144L25.6695 40.6374C26.6452 39.8959 28.0186 39.9891 28.8851 40.8556L24.6424 45.0983ZM21.9017 42.3576L24.6424 45.0983L28.8851 40.8556L26.1444 38.1149L21.9017 42.3576ZM21.5856 37.7C20.5116 39.1132 20.6466 41.1025 21.9017 42.3576L26.1444 38.1149C27.0109 38.9815 27.1041 40.3549 26.3626 41.3305L21.5856 37.7ZM22.7718 36.1393L21.5856 37.7L26.3626 41.3305L27.5488 39.7698L22.7718 36.1393ZM23.3262 35.546L23.039 35.8332L27.2816 40.0758L27.5688 39.7886L23.3262 35.546ZM20.9024 34.4023C21.2945 36.1547 21.9822 37.7946 22.9091 39.2661L27.986 36.0685C27.4173 35.1656 26.9971 34.1626 26.7576 33.0922L20.9024 34.4023ZM23.4176 36.7473H23.83V30.7473H23.4176V36.7473ZM21.0699 36.4549L23.0122 36.7197L23.8229 30.7748L21.8806 30.5099L21.0699 36.4549ZM18 32.938C18 34.7129 19.3112 36.215 21.0699 36.4549L21.8806 30.5099C23.0948 30.6755 24 31.7125 24 32.938H18ZM18 29.062V32.938H24V29.062H18ZM21.0699 25.5451C19.3112 25.785 18 27.287 18 29.062H24C24 30.2875 23.0948 31.3245 21.8806 31.4901L21.0699 25.5451ZM23.0122 25.2803L21.0699 25.5451L21.8806 31.4901L23.8229 31.2252L23.0122 25.2803ZM23.83 25.2527H23.4176V31.2527H23.83V25.2527ZM22.9091 22.7338C21.9822 24.2054 21.2945 25.8453 20.9024 27.5977L26.7576 28.9078C26.9971 27.8374 27.4173 26.8343 27.9859 25.9315L22.9091 22.7338ZM23.1555 26.2834L23.3262 26.454L27.5688 22.2114L27.3982 22.0407L23.1555 26.2834ZM21.6071 24.3211L22.904 25.9977L27.6497 22.3264L26.3528 20.6499L21.6071 24.3211ZM21.9047 19.6395C20.6414 20.9028 20.5139 22.9081 21.6071 24.3211L26.3528 20.6499C27.1075 21.6255 27.0195 23.01 26.1473 23.8821L21.9047 19.6395ZM24.6395 16.9047L21.9047 19.6395L26.1473 23.8821L28.8821 21.1473L24.6395 16.9047ZM29.3212 16.607C27.9081 15.5139 25.9028 15.6414 24.6395 16.9047L28.8821 21.1473C28.01 22.0195 26.6255 22.1075 25.6499 21.3528L29.3212 16.607ZM30.9977 17.904L29.3212 16.607L25.6499 21.3528L27.3264 22.6497L30.9977 17.904ZM31.4416 18.3138L31.2834 18.1555L27.0407 22.3982L27.199 22.5564L31.4416 18.3138ZM32.5844 15.8626C30.8244 16.2648 29.1791 16.9654 27.7053 17.9069L30.9354 22.9633C31.8397 22.3855 32.8462 21.9574 33.9211 21.7118L32.5844 15.8626ZM30.2527 18.5824V18.7872H36.2527V18.5824H30.2527ZM30.5453 16.1L30.2769 18.2025L36.2286 18.9623L36.497 16.8598L30.5453 16.1ZM34.0662 13C32.2797 13 30.7715 14.3278 30.5453 16.1L36.497 16.8598C36.3408 18.0833 35.2996 19 34.0662 19V13ZM37.9338 13H34.0662V19H37.9338V13ZM41.4547 16.1C41.2285 14.3278 39.7203 13 37.9338 13V19C36.7004 19 35.6592 18.0833 35.503 16.8598L41.4547 16.1ZM41.7231 18.2025L41.4547 16.1L35.503 16.8598L35.7714 18.9623L41.7231 18.2025ZM41.7473 18.7624V18.5824H35.7473V18.7624H41.7473ZM44.3215 17.8537C42.8307 16.9148 41.1672 16.2213 39.389 15.8319L38.1056 21.693C39.1917 21.9308 40.2092 22.3546 41.1238 22.9306L44.3215 17.8537ZM40.7166 18.1555L40.6013 18.2709L44.844 22.5135L44.9593 22.3982L40.7166 18.1555ZM42.6789 16.607L41.0024 17.904L44.6736 22.6497L46.3501 21.3528L42.6789 16.607ZM47.3605 16.9047C46.0973 15.6414 44.0919 15.5139 42.6789 16.607L46.3501 21.3528C45.3745 22.1075 43.99 22.0195 43.1179 21.1473L47.3605 16.9047ZM50.0953 19.6395L47.3605 16.9047L43.1179 21.1473L45.8527 23.8821L50.0953 19.6395ZM50.393 24.3211C51.4861 22.9081 51.3586 20.9028 50.0953 19.6395L45.8527 23.8821C44.9805 23.01 44.8925 21.6255 45.6472 20.6499L50.393 24.3211ZM49.096 25.9977L50.393 24.3211L45.6472 20.6499L44.3503 22.3264L49.096 25.9977ZM48.7415 26.3863L48.8445 26.2834L44.6018 22.0407L44.4989 22.1437L48.7415 26.3863ZM51.2082 27.5977C50.8087 25.8119 50.1021 24.1429 49.1484 22.65L44.092 25.88C44.6773 26.7962 45.109 27.817 45.353 28.9078L51.2082 27.5977ZM48.4176 25.2527H48.2806V31.2527H48.4176V25.2527ZM50.9 25.5453L48.7975 25.2769L48.0377 31.2286L50.1402 31.497L50.9 25.5453ZM54 29.0662C54 27.2797 52.6722 25.7715 50.9 25.5453L50.1402 31.497C48.9167 31.3408 48 30.2996 48 29.0662H54ZM54 32.9338V29.0662H48V32.9338H54ZM50.9 36.4547C52.6722 36.2285 54 34.7204 54 32.9338H48C48 31.7004 48.9167 30.6592 50.1402 30.503L50.9 36.4547ZM48.7975 36.7231L50.9 36.4547L50.1402 30.503L48.0377 30.7714L48.7975 36.7231ZM48.2806 36.7473H48.4176V30.7473H48.2806V36.7473ZM49.1484 39.35C50.1021 37.8571 50.8087 36.1881 51.2082 34.4023L45.353 33.0922C45.109 34.1829 44.6773 35.2038 44.092 36.1199L49.1484 39.35ZM48.961 35.8332L48.7415 35.6137L44.4989 39.8563L44.7184 40.0758L48.961 35.8332ZM50.4144 37.7L49.2282 36.1393L44.4512 39.7698L45.6374 41.3305L50.4144 37.7ZM50.0983 42.3576C51.3534 41.1025 51.4884 39.1132 50.4144 37.7L45.6374 41.3305C44.8959 40.3549 44.9891 38.9814 45.8556 38.1149L50.0983 42.3576ZM47.3576 45.0983L50.0983 42.3576L45.8556 38.1149L43.1149 40.8556L47.3576 45.0983ZM42.7 45.4144C44.1132 46.4884 46.1025 46.3534 47.3576 45.0983L43.1149 40.8556C43.9815 39.9891 45.3549 39.8959 46.3305 40.6374L42.7 45.4144ZM41.1393 44.2282L42.7 45.4144L46.3305 40.6374L44.7698 39.4512L41.1393 44.2282ZM40.6013 43.7291L40.8332 43.961L45.0759 39.7184L44.8439 39.4865L40.6013 43.7291ZM39.389 46.1681C41.1672 45.7787 42.8307 45.0852 44.3215 44.1462L41.1238 39.0694C40.2092 39.6454 39.1917 40.0691 38.1056 40.307L39.389 46.1681ZM41.7473 43.5824V43.2375H35.7473V43.5824H41.7473ZM41.4549 45.9301L41.7197 43.9878L35.7748 43.1771L35.5099 45.1194L41.4549 45.9301ZM37.938 49C39.713 49 41.215 47.6888 41.4549 45.9301L35.5099 45.1194C35.6755 43.9052 36.7125 43 37.938 43V49ZM34.062 49H37.938V43H34.062V49Z" fill="black" mask="url(#path-5-outside-2_1013_889)"/>
<path d="M39 24V39L28 31.5L39 24Z" fill="white"/>
<rect x="85" y="18" width="2" height="28" rx="1" fill="black"/>
</g>
<defs>
<filter id="filter0_d_1013_889" x="0" y="0" width="172" height="62" filterUnits="userSpaceOnUse" color-interpolation-filters="sRGB">
<feFlood flood-opacity="0" result="BackgroundImageFix"/>
<feColorMatrix in="SourceAlpha" type="matrix" values="0 0 0 0 0 0 0 0 0 0 0 0 0 0 0 0 0 0 127 0" result="hardAlpha"/>
<feOffset/>
<feGaussianBlur stdDeviation="3"/>
<feComposite in2="hardAlpha" operator="out"/>
<feColorMatrix type="matrix" values="0 0 0 0 0 0 0 0 0 0 0 0 0 0 0 0 0 0 0.1 0"/>
<feBlend mode="normal" in2="BackgroundImageFix" result="effect1_dropShadow_1013_889"/>
<feBlend mode="normal" in="SourceGraphic" in2="effect1_dropShadow_1013_889" result="shape"/>
</filter>
</defs>
</svg>
