<svg width="245" height="96" viewBox="0 0 245 96" fill="none" xmlns="http://www.w3.org/2000/svg">
<path fill-rule="evenodd" clip-rule="evenodd" d="M176.203 89.6417C189.812 89.6417 200.845 78.609 200.845 64.9995C201.317 53.7555 195.665 42.9909 189.382 31.0245L189.381 31.0244C184.517 21.7607 179.275 11.7768 176.203 0.292725C173.131 11.7768 167.889 21.7608 163.024 31.0245C156.741 42.9909 151.088 53.7555 151.561 64.9995C151.561 78.609 162.593 89.6417 176.203 89.6417ZM160.775 61.3304C161.499 55.6149 164.2 50.753 167.147 45.4484L167.147 45.4483C170.656 39.1302 174.515 32.1842 175.798 22.4202C178.518 29.776 177.014 36.5015 170.768 59.4673C167.291 74.722 177.028 80.333 183.566 74.4659C188.487 68.9136 186.15 61.9787 183.22 53.2827C180.846 46.2378 178.082 38.0369 178.472 28.4788C178.626 31.9147 183.491 42.6054 187.29 50.9532L187.29 50.9534L187.291 50.9549C188.663 53.9692 189.895 56.6779 190.717 58.6292C192.058 61.8142 192.147 64.1936 191.723 68.8548C189.555 80.2977 179.078 84.6436 170.554 81.0218C163.28 77.9315 159.781 69.1705 160.775 61.3304ZM178.498 27.9348C178.471 28.0879 178.463 28.27 178.472 28.4788C178.48 28.298 178.488 28.1166 178.498 27.9348ZM14.6521 48.4238L12.4595 66.5214H18.0977L20.2903 48.4238H14.6521ZM7.09985 18.493H35.012L33.6895 29.6301H16.9143L15.9747 37.2868H32.7498L27.9122 77.6584H0L7.09985 18.493ZM62.3673 18.493L61.0448 29.6301H50.1862L48.6201 42.6464H59.4786L58.1561 53.7835H47.2627L45.7314 66.5214H56.59L55.2675 77.6584H33.2718L40.3717 18.493H62.3673ZM92.5417 77.6584H81.4047L87.182 29.6301H83.3884L75.0705 77.6584H59.7571L61.0796 66.5214H65.8476L74.1656 18.493H99.6415L92.5417 77.6584ZM129.851 77.6584H118.714L124.491 29.6301H120.697L112.379 77.6584H97.0661L98.3886 66.5214H103.157L111.475 18.493H136.951L129.851 77.6584ZM206.89 46.3928C210.556 54.3554 214.413 62.7366 213.054 72.8785C210.707 88.3008 198.302 97.5207 181.707 95.3415C195.425 93.182 204.84 81.2494 206.852 70.364C208.653 60.6144 206.481 54.5378 204.381 48.6657C202.608 43.7082 200.888 38.8965 201.655 32.1434C202.538 36.9374 204.679 41.5889 206.89 46.3928ZM140.078 72.8785C138.719 62.7366 142.576 54.3555 146.242 46.3928C148.453 41.5889 150.594 36.9374 151.477 32.1434C152.244 38.8965 150.524 43.7082 148.751 48.6657C146.651 54.5378 144.479 60.6144 146.28 70.364C148.292 81.2494 157.707 93.182 171.425 95.3415C154.83 97.5207 142.425 88.3008 140.078 72.8785ZM238.71 66.5214H227.851L232.306 29.6301H243.165L244.487 18.493H222.491L215.392 77.6584H237.387L238.71 66.5214Z" fill="black"/>
</svg>
