<svg width="175" height="227" viewBox="0 0 175 227" fill="none" xmlns="http://www.w3.org/2000/svg">
<path fill-rule="evenodd" clip-rule="evenodd" d="M145.279 154.022C145.279 186.417 119.024 212.678 86.6354 212.678C54.2472 212.678 27.9914 186.417 27.9914 154.022C26.8672 127.258 40.319 101.635 55.2725 73.1513C66.8488 51.1007 79.325 27.3357 86.6354 0C93.9457 27.3357 106.422 51.1007 117.998 73.1513C132.952 101.635 146.404 127.258 145.279 154.022ZM65.0827 107.485C56.9975 122.043 49.6902 135.2 49.4732 151.685C49.2819 166.223 55.2757 181.333 67.5212 189.167C88.5288 202.605 117.916 193.041 123.569 163.2C124.578 152.104 124.367 146.441 121.176 138.859C111.559 122.507 107.316 113.865 108.809 105.342C88.4628 123.697 76.8706 152.872 108.011 171.978C112.753 163.523 110.356 156.454 107.868 149.118C105.543 142.258 103.138 135.166 106.415 126.49C107.048 131.758 109.091 137.062 111.136 142.372C115.529 153.775 119.931 165.205 110.404 176.367C94.8458 190.333 65.4258 177.165 73.702 140.854C88.5642 86.1885 92.1447 70.1798 85.671 52.6707C82.6176 75.9122 73.4351 92.446 65.0827 107.485Z" fill="black"/>
<path d="M174.336 172.776C179.522 134.071 152.793 106.14 147.208 75.814C143.219 110.928 167.483 123.991 159.575 166.791C154.788 192.702 132.383 221.105 99.7346 226.245C139.23 231.432 168.751 209.486 174.336 172.776Z" fill="black"/>
<path d="M0.663875 172.776C-4.52233 134.071 22.2065 106.14 27.7917 75.814C31.7811 110.928 7.51689 123.991 15.4246 166.791C20.2119 192.702 42.6172 221.105 75.2654 226.245C35.7705 231.432 6.24901 209.486 0.663875 172.776Z" fill="black"/>
</svg>
