<svg width="59" height="59" viewBox="0 0 59 59" fill="none" xmlns="http://www.w3.org/2000/svg">
<mask id="path-1-outside-1_121_5930" maskUnits="userSpaceOnUse" x="-9.70333" y="-9.70342" width="78.4066" height="78.4066" fill="black">
<rect fill="white" x="-9.70333" y="-9.70342" width="78.4066" height="78.4066"/>
<path fill-rule="evenodd" clip-rule="evenodd" d="M37.5964 54.964C37.1565 55.1691 36.6326 55.0178 36.3699 54.6096L34.4956 51.6973L34.2197 51.1057C31.7082 51.6454 29.1639 51.7318 26.6928 51.4034L26.458 52.0483L24.8447 55.1128C24.6185 55.5423 24.1099 55.7388 23.6537 55.5727L17.2192 53.2308C16.7631 53.0647 16.4997 52.5873 16.6025 52.1129L17.3365 48.7283L17.5817 48.0545C15.4979 46.712 13.6242 45.0096 12.0647 42.9854L11.4049 43.293L8.09713 44.3191C7.63351 44.463 7.13492 44.2422 6.92977 43.8023L4.03589 37.5963C3.83075 37.1564 3.98212 36.6325 4.3903 36.3698L7.30256 34.4955L7.96233 34.1879C7.41413 31.692 7.31447 29.1624 7.62541 26.7032L7.2253 26.5575L3.897 24.8415C3.46274 24.6176 3.26257 24.1058 3.42967 23.6467L5.76663 17.226C5.93374 16.7669 6.41603 16.5035 6.89261 16.6111L10.5453 17.436L10.9165 17.5711C12.2534 15.467 13.955 13.5735 15.9828 11.9965L15.83 11.6687L14.6899 8.10186C14.5412 7.63647 14.7615 7.13306 15.2043 6.92658L21.3969 4.03891C21.8397 3.83243 22.367 3.98723 22.6279 4.40032L24.6275 7.5664L24.7619 7.85481C27.2892 7.28772 29.8526 7.18137 32.3437 7.49634L32.4424 7.22518L34.1584 3.89688C34.3823 3.46262 34.8941 3.26245 35.3532 3.42956L41.7739 5.76652C42.233 5.93362 42.4964 6.41592 42.3888 6.89249L41.5639 10.5452L41.4757 10.7875C43.607 12.1415 45.5222 13.8699 47.1113 15.9324L47.3312 15.8299L50.898 14.6898C51.3634 14.5411 51.8668 14.7614 52.0733 15.2042L54.961 21.3968C55.1675 21.8396 55.0127 22.3669 54.5996 22.6278L51.4335 24.6274L51.2136 24.7299C51.7722 27.2729 51.8651 29.8511 51.5324 32.3541L52.0484 32.5419L55.1129 34.1552C55.5424 34.3814 55.7389 34.89 55.5729 35.3462L53.2309 41.7807C53.0648 42.2368 52.5874 42.5002 52.113 42.3974L48.7284 41.6634L48.1836 41.4651C46.8236 43.5759 45.0945 45.4712 43.0355 47.0427L43.2931 47.595L44.3192 50.9028C44.463 51.3664 44.2423 51.865 43.8023 52.0701L37.5964 54.964Z"/>
</mask>
<path fill-rule="evenodd" clip-rule="evenodd" d="M37.5964 54.964C37.1565 55.1691 36.6326 55.0178 36.3699 54.6096L34.4956 51.6973L34.2197 51.1057C31.7082 51.6454 29.1639 51.7318 26.6928 51.4034L26.458 52.0483L24.8447 55.1128C24.6185 55.5423 24.1099 55.7388 23.6537 55.5727L17.2192 53.2308C16.7631 53.0647 16.4997 52.5873 16.6025 52.1129L17.3365 48.7283L17.5817 48.0545C15.4979 46.712 13.6242 45.0096 12.0647 42.9854L11.4049 43.293L8.09713 44.3191C7.63351 44.463 7.13492 44.2422 6.92977 43.8023L4.03589 37.5963C3.83075 37.1564 3.98212 36.6325 4.3903 36.3698L7.30256 34.4955L7.96233 34.1879C7.41413 31.692 7.31447 29.1624 7.62541 26.7032L7.2253 26.5575L3.897 24.8415C3.46274 24.6176 3.26257 24.1058 3.42967 23.6467L5.76663 17.226C5.93374 16.7669 6.41603 16.5035 6.89261 16.6111L10.5453 17.436L10.9165 17.5711C12.2534 15.467 13.955 13.5735 15.9828 11.9965L15.83 11.6687L14.6899 8.10186C14.5412 7.63647 14.7615 7.13306 15.2043 6.92658L21.3969 4.03891C21.8397 3.83243 22.367 3.98723 22.6279 4.40032L24.6275 7.5664L24.7619 7.85481C27.2892 7.28772 29.8526 7.18137 32.3437 7.49634L32.4424 7.22518L34.1584 3.89688C34.3823 3.46262 34.8941 3.26245 35.3532 3.42956L41.7739 5.76652C42.233 5.93362 42.4964 6.41592 42.3888 6.89249L41.5639 10.5452L41.4757 10.7875C43.607 12.1415 45.5222 13.8699 47.1113 15.9324L47.3312 15.8299L50.898 14.6898C51.3634 14.5411 51.8668 14.7614 52.0733 15.2042L54.961 21.3968C55.1675 21.8396 55.0127 22.3669 54.5996 22.6278L51.4335 24.6274L51.2136 24.7299C51.7722 27.2729 51.8651 29.8511 51.5324 32.3541L52.0484 32.5419L55.1129 34.1552C55.5424 34.3814 55.7389 34.89 55.5729 35.3462L53.2309 41.7807C53.0648 42.2368 52.5874 42.5002 52.113 42.3974L48.7284 41.6634L48.1836 41.4651C46.8236 43.5759 45.0945 45.4712 43.0355 47.0427L43.2931 47.595L44.3192 50.9028C44.463 51.3664 44.2423 51.865 43.8023 52.0701L37.5964 54.964Z" fill="black"/>
<path d="M36.3699 54.6096L33.8472 56.2332L33.8472 56.2332L36.3699 54.6096ZM34.4956 51.6973L31.7767 52.9652L31.8627 53.1497L31.9729 53.3209L34.4956 51.6973ZM34.2197 51.1057L36.9386 49.8378L35.9278 47.6701L33.5894 48.1726L34.2197 51.1057ZM26.6928 51.4034L27.088 48.4295L24.6982 48.1119L23.8737 50.3773L26.6928 51.4034ZM26.458 52.0483L29.1126 53.4458L29.2075 53.2656L29.2771 53.0743L26.458 52.0483ZM24.8447 55.1128L22.1901 53.7152L22.1901 53.7152L24.8447 55.1128ZM23.6537 55.5727L24.6798 52.7537L24.6798 52.7537L23.6537 55.5727ZM17.2192 53.2308L16.1931 56.0498L16.1931 56.0498L17.2192 53.2308ZM16.6025 52.1129L13.6707 51.4771L13.6707 51.4771L16.6025 52.1129ZM17.3365 48.7283L14.5174 47.7022L14.4478 47.8935L14.4046 48.0925L17.3365 48.7283ZM17.5817 48.0545L20.4008 49.0806L21.22 46.8299L19.2066 45.5327L17.5817 48.0545ZM12.0647 42.9854L14.4412 41.1544L12.9746 39.2509L10.7968 40.2664L12.0647 42.9854ZM11.4049 43.293L12.2938 46.1583L12.4882 46.098L12.6728 46.0119L11.4049 43.293ZM8.09713 44.3191L7.20826 41.4538L7.20826 41.4538L8.09713 44.3191ZM4.3903 36.3698L2.76671 33.8471L2.7667 33.8471L4.3903 36.3698ZM7.30256 34.4955L6.0347 31.7766L5.85018 31.8626L5.67897 31.9728L7.30256 34.4955ZM7.96233 34.1879L9.23019 36.9068L11.408 35.8912L10.8925 33.5443L7.96233 34.1879ZM7.62541 26.7032L10.6017 27.0795L10.9022 24.7033L8.65147 23.8841L7.62541 26.7032ZM7.2253 26.5575L5.85051 29.224L6.02002 29.3114L6.19924 29.3766L7.2253 26.5575ZM3.897 24.8415L2.52221 27.508L2.52221 27.508L3.897 24.8415ZM3.42967 23.6467L6.24875 24.6728L6.24875 24.6728L3.42967 23.6467ZM5.76663 17.226L2.94755 16.1999L5.76663 17.226ZM6.89261 16.6111L6.23178 19.5374L6.23179 19.5374L6.89261 16.6111ZM10.5453 17.436L11.5713 14.6169L11.3921 14.5517L11.2061 14.5097L10.5453 17.436ZM10.9165 17.5711L9.89048 20.3902L12.1559 21.2147L13.4487 19.1799L10.9165 17.5711ZM15.9828 11.9965L17.8245 14.3647L19.7126 12.8964L18.7017 10.7287L15.9828 11.9965ZM15.83 11.6687L12.9724 12.5821L13.0304 12.7637L13.111 12.9366L15.83 11.6687ZM14.6899 8.10186L11.8323 9.0152L11.8323 9.0152L14.6899 8.10186ZM22.6279 4.40032L20.0914 6.00226L20.0914 6.00228L22.6279 4.40032ZM24.6275 7.5664L27.3464 6.29854L27.2658 6.12569L27.1639 5.96444L24.6275 7.5664ZM24.7619 7.85481L22.043 9.12267L23.0633 11.3106L25.4188 10.782L24.7619 7.85481ZM32.3437 7.49634L31.9674 10.4726L34.3436 10.7731L35.1628 8.52239L32.3437 7.49634ZM32.4424 7.22518L29.7759 5.8504L29.6885 6.01991L29.6233 6.19913L32.4424 7.22518ZM34.1584 3.89688L31.4919 2.5221L31.4919 2.5221L34.1584 3.89688ZM35.3532 3.42956L34.3271 6.24863L34.3271 6.24864L35.3532 3.42956ZM41.7739 5.76652L42.8 2.94744L42.8 2.94744L41.7739 5.76652ZM42.3888 6.89249L39.4625 6.23167L39.4625 6.23168L42.3888 6.89249ZM41.5639 10.5452L44.383 11.5712L44.4482 11.392L44.4903 11.206L41.5639 10.5452ZM41.4757 10.7875L38.6567 9.7614L37.8321 12.0268L39.8669 13.3196L41.4757 10.7875ZM47.1113 15.9324L44.7348 17.7633L46.2013 19.6669L48.3791 18.6513L47.1113 15.9324ZM47.3312 15.8299L46.4178 12.9723L46.2361 13.0303L46.0633 13.1109L47.3312 15.8299ZM50.898 14.6898L49.9847 11.8322L49.9847 11.8322L50.898 14.6898ZM54.5996 22.6278L52.9976 20.0913L52.9976 20.0913L54.5996 22.6278ZM51.4335 24.6274L52.7013 27.3463L52.8742 27.2657L53.0354 27.1638L51.4335 24.6274ZM51.2136 24.7299L49.9457 22.011L47.7679 23.0265L48.2835 25.3735L51.2136 24.7299ZM51.5324 32.3541L48.5586 31.9589L48.241 34.3486L50.5064 35.1732L51.5324 32.3541ZM52.0484 32.5419L53.4459 29.8873L53.2658 29.7924L53.0744 29.7228L52.0484 32.5419ZM55.1129 34.1552L56.5104 31.5006L56.5104 31.5006L55.1129 34.1552ZM55.5729 35.3462L58.3919 36.3722L58.3919 36.3722L55.5729 35.3462ZM53.2309 41.7807L50.4118 40.7546L50.4118 40.7546L53.2309 41.7807ZM52.113 42.3974L52.7488 39.4655L52.7488 39.4655L52.113 42.3974ZM48.7284 41.6634L47.7023 44.4825L47.8937 44.5521L48.0926 44.5953L48.7284 41.6634ZM48.1836 41.4651L49.2097 38.6461L46.959 37.8269L45.6617 39.8403L48.1836 41.4651ZM43.0355 47.0427L41.2154 44.6579L39.2964 46.1226L40.3166 48.3105L43.0355 47.0427ZM43.2931 47.595L46.1584 46.7061L46.0981 46.5117L46.012 46.3271L43.2931 47.595ZM44.3192 50.9028L41.4539 51.7916L41.4539 51.7916L44.3192 50.9028ZM33.8472 56.2332C34.9218 57.9029 37.0647 58.5221 38.8643 57.6829L36.3285 52.2451C37.2483 51.8162 38.3434 52.1327 38.8926 52.986L33.8472 56.2332ZM31.9729 53.3209L33.8472 56.2332L38.8926 52.986L37.0183 50.0737L31.9729 53.3209ZM31.5008 52.3735L31.7767 52.9652L37.2145 50.4295L36.9386 49.8378L31.5008 52.3735ZM26.2976 54.3772C29.1036 54.7501 31.995 54.6523 34.85 54.0387L33.5894 48.1726C31.4214 48.6385 29.2242 48.7134 27.088 48.4295L26.2976 54.3772ZM29.2771 53.0743L29.5118 52.4294L23.8737 50.3773L23.639 51.0222L29.2771 53.0743ZM27.4993 56.5103L29.1126 53.4458L23.8034 50.6507L22.1901 53.7152L27.4993 56.5103ZM22.6277 58.3918C24.4936 59.0709 26.5743 58.2673 27.4993 56.5103L22.1901 53.7152C22.6628 52.8173 23.7262 52.4066 24.6798 52.7537L22.6277 58.3918ZM16.1931 56.0498L22.6277 58.3918L24.6798 52.7537L18.2453 50.4117L16.1931 56.0498ZM13.6707 51.4771C13.2499 53.4177 14.3273 55.3707 16.1931 56.0498L18.2453 50.4117C19.1989 50.7588 19.7495 51.7569 19.5344 52.7486L13.6707 51.4771ZM14.4046 48.0925L13.6707 51.4771L19.5344 52.7487L20.2683 49.364L14.4046 48.0925ZM14.7626 47.0285L14.5174 47.7022L20.1556 49.7543L20.4008 49.0806L14.7626 47.0285ZM9.68817 44.8163C11.461 47.1174 13.5906 49.0518 15.9568 50.5764L19.2066 45.5327C17.4053 44.3721 15.7874 42.9018 14.4412 41.1544L9.68817 44.8163ZM12.6728 46.0119L13.3325 45.7043L10.7968 40.2664L10.137 40.5741L12.6728 46.0119ZM8.98599 47.1844L12.2938 46.1583L10.516 40.4277L7.20826 41.4538L8.98599 47.1844ZM4.21085 45.0701C5.05001 46.8697 7.08952 47.7728 8.98599 47.1844L7.20826 41.4538C8.1775 41.1532 9.21983 41.6147 9.64869 42.5344L4.21085 45.0701ZM1.31697 38.8642L4.21085 45.0701L9.64869 42.5344L6.75482 36.3285L1.31697 38.8642ZM2.7667 33.8471C1.09701 34.9218 0.477804 37.0646 1.31697 38.8642L6.75482 36.3285C7.18369 37.2482 6.86723 38.3433 6.0139 38.8925L2.7667 33.8471ZM5.67897 31.9728L2.76671 33.8471L6.01389 38.8925L8.92615 37.0182L5.67897 31.9728ZM6.69448 31.4689L6.0347 31.7766L8.57041 37.2144L9.23019 36.9068L6.69448 31.4689ZM4.64911 26.3268C4.29601 29.1195 4.409 31.9943 5.03218 34.8315L10.8925 33.5443C10.4193 31.3898 10.3329 29.2053 10.6017 27.0795L4.64911 26.3268ZM6.19924 29.3766L6.59936 29.5222L8.65147 23.8841L8.25136 23.7384L6.19924 29.3766ZM2.52221 27.508L5.85051 29.224L8.60008 23.8911L5.27178 22.175L2.52221 27.508ZM0.610595 22.6207C-0.0729494 24.4987 0.745856 26.5921 2.52221 27.508L5.27178 22.175C6.17962 22.6431 6.59809 23.713 6.24875 24.6728L0.610595 22.6207ZM2.94755 16.1999L0.610595 22.6207L6.24875 24.6728L8.58571 18.252L2.94755 16.1999ZM7.55343 13.6848C5.60395 13.2446 3.6311 14.3219 2.94755 16.1999L8.58571 18.252C8.23637 19.2118 7.22811 19.7624 6.23178 19.5374L7.55343 13.6848ZM11.2061 14.5097L7.55342 13.6848L6.23179 19.5374L9.88446 20.3623L11.2061 14.5097ZM11.9426 14.752L11.5713 14.6169L9.51921 20.255L9.89048 20.3902L11.9426 14.752ZM14.1411 9.62833C11.8359 11.421 9.90241 13.5731 8.3844 15.9623L13.4487 19.1799C14.6043 17.361 16.0741 15.7259 17.8245 14.3647L14.1411 9.62833ZM13.111 12.9366L13.2639 13.2644L18.7017 10.7287L18.5489 10.4009L13.111 12.9366ZM11.8323 9.0152L12.9724 12.5821L18.6875 10.7554L17.5475 7.18851L11.8323 9.0152ZM13.9364 4.20766C12.1251 5.05228 11.2239 7.11152 11.8323 9.0152L17.5475 7.18852C17.8585 8.16143 17.3978 9.21384 16.4721 9.6455L13.9364 4.20766ZM20.1291 1.31999L13.9364 4.20766L16.4721 9.6455L22.6648 6.75783L20.1291 1.31999ZM25.1644 2.79838C24.0972 1.10859 21.9404 0.475364 20.1291 1.31999L22.6648 6.75783C21.7391 7.18949 20.6368 6.86587 20.0914 6.00226L25.1644 2.79838ZM27.1639 5.96444L25.1644 2.79837L20.0914 6.00228L22.091 9.16835L27.1639 5.96444ZM27.4809 6.58696L27.3464 6.29854L21.9085 8.83425L22.043 9.12267L27.4809 6.58696ZM32.72 4.52003C29.8911 4.16236 26.978 4.28295 24.1051 4.9276L25.4188 10.782C27.6004 10.2925 29.814 10.2004 31.9674 10.4726L32.72 4.52003ZM29.6233 6.19913L29.5246 6.47029L35.1628 8.52239L35.2615 8.25123L29.6233 6.19913ZM31.4919 2.5221L29.7759 5.8504L35.1088 8.59997L36.8249 5.27167L31.4919 2.5221ZM36.3792 0.610483C34.5012 -0.0730698 32.4078 0.745742 31.4919 2.5221L36.8249 5.27167C36.3568 6.1795 35.2869 6.59798 34.3271 6.24863L36.3792 0.610483ZM42.8 2.94744L36.3792 0.61048L34.3271 6.24864L40.7479 8.58559L42.8 2.94744ZM45.3151 7.55331C45.7553 5.60385 44.678 3.63099 42.8 2.94744L40.7478 8.58559C39.788 8.23625 39.2375 7.22799 39.4625 6.23167L45.3151 7.55331ZM44.4903 11.206L45.3151 7.55331L39.4625 6.23168L38.6376 9.88434L44.4903 11.206ZM44.2948 11.8135L44.383 11.5712L38.7449 9.51911L38.6567 9.7614L44.2948 11.8135ZM49.4877 14.1015C47.6814 11.7569 45.5046 9.79293 43.0846 8.25532L39.8669 13.3196C41.7093 14.4902 43.3631 15.983 44.7348 17.7633L49.4877 14.1015ZM46.0633 13.1109L45.8434 13.2135L48.3791 18.6513L48.599 18.5488L46.0633 13.1109ZM49.9847 11.8322L46.4178 12.9723L48.2445 18.6875L51.8114 17.5474L49.9847 11.8322ZM54.7922 13.9363C53.9476 12.125 51.8884 11.2238 49.9847 11.8322L51.8114 17.5474C50.8385 17.8584 49.786 17.3978 49.3544 16.4721L54.7922 13.9363ZM57.6799 20.129L54.7922 13.9363L49.3544 16.4721L52.2421 22.6647L57.6799 20.129ZM56.2015 25.1643C57.8913 24.0971 58.5245 21.9403 57.6799 20.129L52.2421 22.6647C51.8104 21.739 52.134 20.6367 52.9976 20.0913L56.2015 25.1643ZM53.0354 27.1638L56.2015 25.1643L52.9976 20.0913L49.8315 22.0909L53.0354 27.1638ZM52.4815 27.4488L52.7013 27.3463L50.1656 21.9084L49.9457 22.011L52.4815 27.4488ZM54.5063 32.7493C54.884 29.907 54.7787 26.9772 54.1437 24.0863L48.2835 25.3735C48.7656 27.5687 48.8461 29.7951 48.5586 31.9589L54.5063 32.7493ZM53.0744 29.7228L52.5585 29.535L50.5064 35.1732L51.0223 35.3609L53.0744 29.7228ZM56.5104 31.5006L53.4459 29.8873L50.6508 35.1964L53.7153 36.8098L56.5104 31.5006ZM58.3919 36.3722C59.071 34.5063 58.2675 32.4256 56.5104 31.5006L53.7153 36.8098C52.8174 36.3371 52.4067 35.2737 52.7538 34.3201L58.3919 36.3722ZM56.0499 42.8068L58.3919 36.3722L52.7538 34.3201L50.4118 40.7546L56.0499 42.8068ZM51.4772 45.3292C53.4178 45.75 55.3708 44.6726 56.0499 42.8068L50.4118 40.7546C50.7589 39.8011 51.757 39.2504 52.7488 39.4655L51.4772 45.3292ZM48.0926 44.5953L51.4773 45.3292L52.7488 39.4655L49.3641 38.7316L48.0926 44.5953ZM47.1576 44.2842L47.7023 44.4825L49.7544 38.8443L49.2097 38.6461L47.1576 44.2842ZM44.8557 49.4274C47.1962 47.641 49.1611 45.487 50.7055 43.09L45.6617 39.8403C44.4862 41.6649 42.9927 43.3014 41.2154 44.6579L44.8557 49.4274ZM46.012 46.3271L45.7545 45.7748L40.3166 48.3105L40.5742 48.8628L46.012 46.3271ZM47.1845 50.0139L46.1584 46.7061L40.4278 48.4839L41.4539 51.7916L47.1845 50.0139ZM45.0702 54.789C46.8698 53.9499 47.7728 51.9104 47.1845 50.0139L41.4539 51.7916C41.1533 50.8224 41.6148 49.7801 42.5345 49.3512L45.0702 54.789ZM38.8643 57.6829L45.0702 54.789L42.5345 49.3512L36.3285 52.2451L38.8643 57.6829Z" fill="black" mask="url(#path-1-outside-1_121_5930)"/>
<path d="M42.5801 18.2759L38.0026 44.6775C37.6569 46.5405 36.7566 47.0043 35.477 46.1271L28.5018 39.8411L25.1366 43.8003C24.7639 44.2561 24.453 44.6364 23.7346 44.6364L24.2363 35.9494L37.1629 21.6641C37.7252 21.0519 37.0405 20.7114 36.2896 21.3249L20.3088 33.6319L13.4289 30.9977C11.9326 30.4266 11.9055 29.1678 13.7409 28.2893L40.6505 15.6099C41.8965 15.0388 42.9864 15.9491 42.5801 18.2772V18.2759Z" fill="white"/>
</svg>
